<mxfile host="app.diagrams.net" modified="2024-03-24T16:10:02.905Z" agent="Mozilla/5.0 (X11; Ubuntu; Linux x86_64; rv:123.0) Gecko/20100101 Firefox/123.0" etag="44pMxcjRDMJWkfNg90pm" version="21.2.9" type="device">
  <diagram name="Page-1" id="CWZhRzL3oF0LiF5kwFqC">
    <mxGraphModel dx="1364" dy="766" grid="1" gridSize="10" guides="1" tooltips="1" connect="1" arrows="1" fold="1" page="1" pageScale="1" pageWidth="850" pageHeight="1100" math="0" shadow="0">
      <root>
        <mxCell id="0" />
        <mxCell id="1" parent="0" />
        <mxCell id="L8x53pU6OXkpBgn4ae3t-26" value="ESP-Prog" style="edgeStyle=orthogonalEdgeStyle;rounded=0;orthogonalLoop=1;jettySize=auto;html=1;exitX=0.25;exitY=1;exitDx=0;exitDy=0;entryX=0.5;entryY=0;entryDx=0;entryDy=0;startArrow=classic;startFill=1;endArrow=none;endFill=0;" edge="1" parent="1" source="L8x53pU6OXkpBgn4ae3t-1" target="L8x53pU6OXkpBgn4ae3t-25">
          <mxGeometry relative="1" as="geometry" />
        </mxCell>
        <mxCell id="L8x53pU6OXkpBgn4ae3t-34" style="edgeStyle=orthogonalEdgeStyle;rounded=0;orthogonalLoop=1;jettySize=auto;html=1;exitX=0.25;exitY=0;exitDx=0;exitDy=0;entryX=0.5;entryY=1;entryDx=0;entryDy=0;" edge="1" parent="1" source="L8x53pU6OXkpBgn4ae3t-1" target="L8x53pU6OXkpBgn4ae3t-33">
          <mxGeometry relative="1" as="geometry">
            <Array as="points">
              <mxPoint x="325" y="170" />
              <mxPoint x="270" y="170" />
            </Array>
          </mxGeometry>
        </mxCell>
        <mxCell id="L8x53pU6OXkpBgn4ae3t-1" value="ESP32-WROVER" style="whiteSpace=wrap;html=1;aspect=fixed;fillColor=#d5e8d4;strokeColor=#82b366;" vertex="1" parent="1">
          <mxGeometry x="270" y="200" width="220" height="220" as="geometry" />
        </mxCell>
        <mxCell id="L8x53pU6OXkpBgn4ae3t-2" value="Rotary Encoder&lt;br&gt;Volume - On/Off" style="rounded=0;whiteSpace=wrap;html=1;fillColor=#fff2cc;strokeColor=#d6b656;" vertex="1" parent="1">
          <mxGeometry x="80" y="200" width="120" height="60" as="geometry" />
        </mxCell>
        <mxCell id="L8x53pU6OXkpBgn4ae3t-3" value="Rotary Encoder&lt;br&gt;Channel select" style="rounded=0;whiteSpace=wrap;html=1;fillColor=#fff2cc;strokeColor=#d6b656;" vertex="1" parent="1">
          <mxGeometry x="80" y="280" width="120" height="60" as="geometry" />
        </mxCell>
        <mxCell id="L8x53pU6OXkpBgn4ae3t-4" value="Tactile switch&lt;br&gt;News" style="rounded=0;whiteSpace=wrap;html=1;fillColor=#fff2cc;strokeColor=#d6b656;" vertex="1" parent="1">
          <mxGeometry x="80" y="360" width="120" height="60" as="geometry" />
        </mxCell>
        <mxCell id="L8x53pU6OXkpBgn4ae3t-24" value="3V3" style="edgeStyle=orthogonalEdgeStyle;rounded=0;orthogonalLoop=1;jettySize=auto;html=1;exitX=1;exitY=0.5;exitDx=0;exitDy=0;entryX=0.329;entryY=-0.017;entryDx=0;entryDy=0;entryPerimeter=0;" edge="1" parent="1" source="L8x53pU6OXkpBgn4ae3t-5" target="L8x53pU6OXkpBgn4ae3t-22">
          <mxGeometry x="-0.452" relative="1" as="geometry">
            <Array as="points">
              <mxPoint x="553" y="130" />
            </Array>
            <mxPoint as="offset" />
          </mxGeometry>
        </mxCell>
        <mxCell id="L8x53pU6OXkpBgn4ae3t-5" value="LDO" style="rounded=0;whiteSpace=wrap;html=1;fillColor=#f8cecc;strokeColor=#b85450;" vertex="1" parent="1">
          <mxGeometry x="320" y="100" width="120" height="60" as="geometry" />
        </mxCell>
        <mxCell id="L8x53pU6OXkpBgn4ae3t-6" value="Audio amplifier&lt;br&gt;MAX98357" style="whiteSpace=wrap;html=1;aspect=fixed;fillColor=#dae8fc;strokeColor=#6c8ebf;" vertex="1" parent="1">
          <mxGeometry x="670" y="320" width="80" height="80" as="geometry" />
        </mxCell>
        <mxCell id="L8x53pU6OXkpBgn4ae3t-8" value="" style="pointerEvents=1;verticalLabelPosition=bottom;shadow=0;dashed=0;align=center;html=1;verticalAlign=top;shape=mxgraph.electrical.electro-mechanical.loudspeaker;fillColor=#dae8fc;strokeColor=#6c8ebf;" vertex="1" parent="1">
          <mxGeometry x="750" y="308.75" width="70" height="102.5" as="geometry" />
        </mxCell>
        <mxCell id="L8x53pU6OXkpBgn4ae3t-28" style="edgeStyle=orthogonalEdgeStyle;rounded=0;orthogonalLoop=1;jettySize=auto;html=1;exitX=1;exitY=0.5;exitDx=0;exitDy=0;" edge="1" parent="1" source="L8x53pU6OXkpBgn4ae3t-10" target="L8x53pU6OXkpBgn4ae3t-27">
          <mxGeometry relative="1" as="geometry" />
        </mxCell>
        <mxCell id="L8x53pU6OXkpBgn4ae3t-10" value="USB-C&lt;br&gt;Connector" style="rounded=0;whiteSpace=wrap;html=1;fillColor=#f8cecc;strokeColor=#b85450;" vertex="1" parent="1">
          <mxGeometry x="80" y="20" width="120" height="60" as="geometry" />
        </mxCell>
        <mxCell id="L8x53pU6OXkpBgn4ae3t-13" value="3V3" style="endArrow=classic;html=1;rounded=0;exitX=0.5;exitY=1;exitDx=0;exitDy=0;" edge="1" parent="1" source="L8x53pU6OXkpBgn4ae3t-5" target="L8x53pU6OXkpBgn4ae3t-1">
          <mxGeometry width="50" height="50" relative="1" as="geometry">
            <mxPoint x="400" y="420" as="sourcePoint" />
            <mxPoint x="450" y="370" as="targetPoint" />
          </mxGeometry>
        </mxCell>
        <mxCell id="L8x53pU6OXkpBgn4ae3t-14" value="" style="edgeStyle=elbowEdgeStyle;elbow=horizontal;endArrow=classic;html=1;curved=0;rounded=0;endSize=8;startSize=8;entryX=0.5;entryY=0;entryDx=0;entryDy=0;exitX=1;exitY=0.5;exitDx=0;exitDy=0;" edge="1" parent="1" source="L8x53pU6OXkpBgn4ae3t-33" target="L8x53pU6OXkpBgn4ae3t-5">
          <mxGeometry width="50" height="50" relative="1" as="geometry">
            <mxPoint x="180" y="170" as="sourcePoint" />
            <mxPoint x="230" y="120" as="targetPoint" />
            <Array as="points">
              <mxPoint x="380" y="70" />
              <mxPoint x="380" y="70" />
            </Array>
          </mxGeometry>
        </mxCell>
        <mxCell id="L8x53pU6OXkpBgn4ae3t-15" value="" style="edgeStyle=elbowEdgeStyle;elbow=horizontal;endArrow=classic;html=1;curved=0;rounded=0;endSize=8;startSize=8;entryX=0.5;entryY=0;entryDx=0;entryDy=0;exitX=1;exitY=0.5;exitDx=0;exitDy=0;" edge="1" parent="1" source="L8x53pU6OXkpBgn4ae3t-33" target="L8x53pU6OXkpBgn4ae3t-6">
          <mxGeometry width="50" height="50" relative="1" as="geometry">
            <mxPoint x="210" y="60" as="sourcePoint" />
            <mxPoint x="330" y="140" as="targetPoint" />
            <Array as="points">
              <mxPoint x="710" y="180" />
              <mxPoint x="600" y="120" />
            </Array>
          </mxGeometry>
        </mxCell>
        <mxCell id="L8x53pU6OXkpBgn4ae3t-16" value="5V" style="edgeLabel;html=1;align=center;verticalAlign=middle;resizable=0;points=[];" vertex="1" connectable="0" parent="L8x53pU6OXkpBgn4ae3t-15">
          <mxGeometry x="-0.2982" y="-5" relative="1" as="geometry">
            <mxPoint x="-195" y="-5" as="offset" />
          </mxGeometry>
        </mxCell>
        <mxCell id="L8x53pU6OXkpBgn4ae3t-17" value="" style="endArrow=classic;html=1;rounded=0;entryX=0;entryY=0.25;entryDx=0;entryDy=0;exitX=1;exitY=0.5;exitDx=0;exitDy=0;" edge="1" parent="1" source="L8x53pU6OXkpBgn4ae3t-2" target="L8x53pU6OXkpBgn4ae3t-1">
          <mxGeometry width="50" height="50" relative="1" as="geometry">
            <mxPoint x="-60" y="290" as="sourcePoint" />
            <mxPoint x="-10" y="240" as="targetPoint" />
          </mxGeometry>
        </mxCell>
        <mxCell id="L8x53pU6OXkpBgn4ae3t-18" value="" style="endArrow=classic;html=1;rounded=0;entryX=-0.014;entryY=0.536;entryDx=0;entryDy=0;entryPerimeter=0;" edge="1" parent="1" source="L8x53pU6OXkpBgn4ae3t-3" target="L8x53pU6OXkpBgn4ae3t-1">
          <mxGeometry width="50" height="50" relative="1" as="geometry">
            <mxPoint x="-50" y="370" as="sourcePoint" />
            <mxPoint y="320" as="targetPoint" />
          </mxGeometry>
        </mxCell>
        <mxCell id="L8x53pU6OXkpBgn4ae3t-19" value="" style="endArrow=classic;html=1;rounded=0;entryX=0;entryY=0.75;entryDx=0;entryDy=0;exitX=1;exitY=0.5;exitDx=0;exitDy=0;" edge="1" parent="1" source="L8x53pU6OXkpBgn4ae3t-4" target="L8x53pU6OXkpBgn4ae3t-1">
          <mxGeometry width="50" height="50" relative="1" as="geometry">
            <mxPoint x="-20" y="400" as="sourcePoint" />
            <mxPoint x="30" y="350" as="targetPoint" />
          </mxGeometry>
        </mxCell>
        <mxCell id="L8x53pU6OXkpBgn4ae3t-20" value="I2S" style="endArrow=classic;html=1;rounded=0;exitX=1;exitY=0.75;exitDx=0;exitDy=0;entryX=0;entryY=0.5;entryDx=0;entryDy=0;" edge="1" parent="1" source="L8x53pU6OXkpBgn4ae3t-1" target="L8x53pU6OXkpBgn4ae3t-6">
          <mxGeometry width="50" height="50" relative="1" as="geometry">
            <mxPoint x="520" y="180" as="sourcePoint" />
            <mxPoint x="570" y="130" as="targetPoint" />
          </mxGeometry>
        </mxCell>
        <mxCell id="L8x53pU6OXkpBgn4ae3t-22" value="OLED : 128x64" style="html=1;verticalLabelPosition=bottom;align=center;labelBackgroundColor=#ffffff;verticalAlign=top;strokeWidth=2;strokeColor=#6c8ebf;shadow=0;dashed=0;shape=mxgraph.ios7.icons.monitor;fillColor=#dae8fc;" vertex="1" parent="1">
          <mxGeometry x="530" y="230" width="70" height="59.5" as="geometry" />
        </mxCell>
        <mxCell id="L8x53pU6OXkpBgn4ae3t-23" value="I2C" style="endArrow=classic;html=1;rounded=0;entryX=0;entryY=0.487;entryDx=0;entryDy=0;entryPerimeter=0;exitX=1;exitY=0.25;exitDx=0;exitDy=0;" edge="1" parent="1" source="L8x53pU6OXkpBgn4ae3t-1" target="L8x53pU6OXkpBgn4ae3t-22">
          <mxGeometry width="50" height="50" relative="1" as="geometry">
            <mxPoint x="510" y="410" as="sourcePoint" />
            <mxPoint x="560" y="360" as="targetPoint" />
          </mxGeometry>
        </mxCell>
        <mxCell id="L8x53pU6OXkpBgn4ae3t-25" value="SKEDD&lt;br&gt;Debug-connector" style="rounded=0;whiteSpace=wrap;html=1;fillColor=#d5e8d4;strokeColor=#82b366;" vertex="1" parent="1">
          <mxGeometry x="270" y="480" width="120" height="60" as="geometry" />
        </mxCell>
        <mxCell id="L8x53pU6OXkpBgn4ae3t-29" value="13V" style="edgeStyle=orthogonalEdgeStyle;rounded=0;orthogonalLoop=1;jettySize=auto;html=1;exitX=0.5;exitY=1;exitDx=0;exitDy=0;entryX=1;entryY=0.387;entryDx=0;entryDy=0;entryPerimeter=0;" edge="1" parent="1" source="L8x53pU6OXkpBgn4ae3t-27" target="L8x53pU6OXkpBgn4ae3t-22">
          <mxGeometry relative="1" as="geometry" />
        </mxCell>
        <mxCell id="L8x53pU6OXkpBgn4ae3t-27" value="Boost &lt;br&gt;converter" style="rounded=0;whiteSpace=wrap;html=1;fillColor=#f8cecc;strokeColor=#b85450;" vertex="1" parent="1">
          <mxGeometry x="580" y="100" width="110" height="60" as="geometry" />
        </mxCell>
        <mxCell id="L8x53pU6OXkpBgn4ae3t-32" style="edgeStyle=none;rounded=0;orthogonalLoop=1;jettySize=auto;html=1;exitX=1;exitY=0.5;exitDx=0;exitDy=0;entryX=0;entryY=1;entryDx=0;entryDy=0;" edge="1" parent="1" source="L8x53pU6OXkpBgn4ae3t-30" target="L8x53pU6OXkpBgn4ae3t-1">
          <mxGeometry relative="1" as="geometry" />
        </mxCell>
        <mxCell id="L8x53pU6OXkpBgn4ae3t-30" value="PIR sensor" style="rounded=0;whiteSpace=wrap;html=1;fillColor=#fff2cc;strokeColor=#d6b656;" vertex="1" parent="1">
          <mxGeometry x="80" y="440" width="120" height="60" as="geometry" />
        </mxCell>
        <mxCell id="L8x53pU6OXkpBgn4ae3t-33" value="Soft power latch" style="rounded=0;whiteSpace=wrap;html=1;fillColor=#f8cecc;strokeColor=#b85450;" vertex="1" parent="1">
          <mxGeometry x="230" y="20" width="80" height="60" as="geometry" />
        </mxCell>
      </root>
    </mxGraphModel>
  </diagram>
</mxfile>
